# xmcd
#
# Track frame offsets: 
#        150
#        11965
#        23389
#        34538
#        44255
#        58970
#        69155
#        82859
#        94298
#        106615
#        118023
#        127936
#
# Disc length: 1825 seconds
#
# Revision: 4
# Processed by: cddbd v1.5.2PL0 Copyright (c) Steve Scherf et al.
# Submitted via: ExactAudioCopy v1.3
#
DISCID=8a071f0c
DTITLE=Marty Robbins - The Many Sides Of Marty Robbins - Disc 3
DYEAR=1993
DGENRE=Country
TTITLE0=That's All Right
TTITLE1=Maybellene
TTITLE2=Singing The Blues
TTITLE3=Long Tall Sally
TTITLE4=Tennessee Toddy
TTITLE5=Respectfully Miss Brooks
TTITLE6=Mean Mama Blues
TTITLE7=Long Gone Lonesome Blues
TTITLE8=Pretty Mama
TTITLE9=A White Sports Coat 
TTITLE10=Knee Deep In The Blues
TTITLE11=Ruby Ann
EXTD=
EXTT0=
EXTT1=
EXTT2=
EXTT3=
EXTT4=
EXTT5=
EXTT6=
EXTT7=
EXTT8=
EXTT9=
EXTT10=
EXTT11=
PLAYORDER=
